<svg width="194" height="194" viewBox="0 0 194 194" fill="none" xmlns="http://www.w3.org/2000/svg">
<rect width="194" height="194" rx="12" fill="url(#paint0_linear_72_22)"/>
<path d="M23 179V17C23 14.2386 25.2386 12 28 12H105.644C107.194 12 108.656 12.7185 109.602 13.9452L149.61 65.7861C150.285 66.6612 150.652 67.7355 150.652 68.8409V179C150.652 181.761 148.413 184 145.652 184H28C25.2386 184 23 181.761 23 179Z" fill="#D9D9D9"/>
<path d="M44.5749 44.9617H97.9129M109.602 13.9452L149.61 65.7861C150.285 66.6612 150.652 67.7355 150.652 68.8409V179C150.652 181.761 148.413 184 145.652 184H28C25.2386 184 23 181.761 23 179V17C23 14.2386 25.2386 12 28 12H105.644C107.194 12 108.656 12.7185 109.602 13.9452Z" stroke="black" stroke-width="8"/>
<path d="M44.0132 62.6449H53.1155L62.7291 86.0995H63.1382L72.7519 62.6449H81.8541V97.554H74.695V74.8324H74.4053L65.3712 97.3836H60.4962L51.4621 74.7472H51.1723V97.554H44.0132V62.6449ZM100.31 97.554H87.9351V62.6449H100.412C103.924 62.6449 106.946 63.3438 109.481 64.7415C112.015 66.1279 113.964 68.1222 115.327 70.7245C116.702 73.3267 117.39 76.4404 117.39 80.0654C117.39 83.7017 116.702 86.8267 115.327 89.4404C113.964 92.054 112.003 94.0597 109.446 95.4574C106.901 96.8552 103.856 97.554 100.31 97.554ZM95.3158 91.2302H100.003C102.185 91.2302 104.02 90.8438 105.509 90.0711C107.009 89.287 108.134 88.0767 108.884 86.4404C109.645 84.7927 110.026 82.6677 110.026 80.0654C110.026 77.4858 109.645 75.3779 108.884 73.7415C108.134 72.1052 107.015 70.9006 105.526 70.1279C104.037 69.3552 102.202 68.9688 100.02 68.9688H95.3158V91.2302Z" fill="black"/>
<path d="M32.0302 144.143V141.757L51.2405 131.972V135.791L36.5047 142.89L36.624 142.651V143.248L36.5047 143.009L51.2405 150.109V153.927L32.0302 144.143ZM69.4999 122.904L59.6561 159.475H56.4345L66.2783 122.904H69.4999ZM93.8967 144.143L74.6865 153.927V150.109L89.4223 143.009L89.303 143.248V142.651L89.4223 142.89L74.6865 135.791V131.972L93.8967 141.757V144.143Z" fill="black"/>
<path d="M114.585 152.071L120.087 130.063L162.638 78.3251L172.126 66.7885C172.501 66.3324 173.188 66.299 173.605 66.7166L187.176 80.2869C187.536 80.6472 187.568 81.2209 187.249 81.6187L178.22 92.9059L136.268 144.446L115.952 153.231C115.192 153.56 114.384 152.875 114.585 152.071Z" fill="#D9D9D9"/>
<path d="M120.087 130.063L114.585 152.071C114.384 152.875 115.192 153.56 115.952 153.231L136.268 144.446M120.087 130.063L162.638 78.3251M120.087 130.063L136.268 144.446M136.268 144.446L178.22 92.9059M178.22 92.9059L187.249 81.6187C187.568 81.2209 187.536 80.6472 187.176 80.2869L173.605 66.7166C173.188 66.299 172.501 66.3324 172.126 66.7885L162.638 78.3251M178.22 92.9059L162.638 78.3251" stroke="black" stroke-width="8"/>
<defs>
<linearGradient id="paint0_linear_72_22" x1="12" y1="8" x2="189" y2="177" gradientUnits="userSpaceOnUse">
<stop offset="0.456731" stop-color="#41CF2C"/>
<stop offset="0.538462" stop-color="#13940A"/>
</linearGradient>
</defs>
</svg>
